<svg width="537" height="477" viewBox="0 0 537 477" fill="none" xmlns="http://www.w3.org/2000/svg">
<g filter="url(#filter0_d_20_311)">
<path fill-rule="evenodd" clip-rule="evenodd" d="M323.759 1C337.861 1.00013 350.642 9.23124 356.493 22.0176L356.766 22.6299L528.398 416.553L528.64 417.111C538.648 440.77 521.29 467.11 495.473 467.11H380.398C365.848 467.11 352.725 458.351 347.147 444.909L271.342 267.205C269.954 263.953 265.338 263.968 263.973 267.23L189.594 444.908C184.016 458.35 170.894 467.11 156.343 467.11H41.0399C15.1515 467.11 -2.27542 440.602 7.9911 416.835L175.735 22.8193L176.006 22.2021C181.814 9.31631 194.648 1.00002 208.824 1H323.759ZM80.8446 322.965C74.461 322.965 68.6877 326.759 66.1561 332.619L26.3514 424.766C21.7885 435.329 29.5335 447.11 41.0399 447.11H156.343C162.81 447.11 168.642 443.217 171.121 437.243L209.358 345.097C213.73 334.561 205.987 322.965 194.58 322.965H80.8446ZM342.161 322.965C330.754 322.965 323.011 334.561 327.383 345.097L365.62 437.243C368.099 443.217 373.931 447.11 380.398 447.11H495.473C507.038 447.11 514.783 435.218 510.106 424.641L469.361 332.494C466.8 326.701 461.061 322.965 454.727 322.965H342.161ZM145.062 173.482C138.662 173.482 132.878 177.297 130.356 183.18L90.8651 275.326C86.4111 285.719 93.8453 297.262 105.035 297.62L105.571 297.629H215.794L216.36 297.619C222.007 297.42 227.133 294.252 229.839 289.292L230.101 288.79L260.92 227.218C263.922 221.219 272.531 221.357 275.339 227.449L303.397 288.326C305.929 293.819 311.333 297.4 317.345 297.618L317.929 297.629H429.599L430.138 297.62C441.224 297.263 448.599 285.939 444.442 275.655L444.232 275.158L403.487 183.012C400.926 177.219 395.187 173.483 388.853 173.482H145.062ZM208.824 21C202.424 21 196.639 24.8145 194.118 30.6973L154.627 122.844C150.173 133.237 157.607 144.779 168.797 145.138L169.333 145.146H363.877L364.415 145.138C375.464 144.783 382.839 133.528 378.754 123.256L378.547 122.76L338.429 30.6133C335.887 24.7755 330.126 21.0001 323.759 21H208.824Z" fill="white"/>
<path d="M323.758 0.5L324.428 0.505859C338.237 0.757866 350.707 8.78709 356.665 21.2051L356.948 21.8096L356.95 21.8135L357.223 22.4258L357.225 22.4297L528.857 416.353V416.354L529.098 416.913L529.1 416.917C539.168 440.717 521.922 467.193 496.084 467.605L495.472 467.61H380.398C365.647 467.61 352.344 458.731 346.687 445.105L270.882 267.401C269.668 264.555 265.629 264.569 264.434 267.423L190.055 445.102L190.054 445.101C184.487 458.515 171.509 467.331 157.033 467.604L156.342 467.61H41.0396C14.7918 467.61 -2.87719 440.734 7.53174 416.637L175.275 22.623L175.277 22.6182L175.547 22.001L175.55 21.9971C181.44 8.93231 194.451 0.500164 208.824 0.5H323.758ZM80.8442 323.465C74.6602 323.465 69.0672 327.14 66.6147 332.817L26.8101 424.964C22.3899 435.197 29.893 446.61 41.0396 446.61H156.342C162.608 446.61 168.257 442.838 170.659 437.052L208.896 344.905C213.065 334.858 205.862 323.815 195.095 323.473L194.58 323.465H80.8442ZM342.161 323.465C331.11 323.465 323.609 334.699 327.844 344.905L366.082 437.052C368.483 442.839 374.133 446.61 380.398 446.61H495.472C506.676 446.61 514.179 435.089 509.649 424.843L468.904 332.696C466.5 327.26 461.208 323.693 455.301 323.476L454.727 323.465H342.161ZM144.483 173.993C138.515 174.215 133.182 177.856 130.816 183.377L91.3247 275.523C87.0103 285.591 94.212 296.773 105.051 297.12H105.05L105.58 297.129H215.786L216.342 297.119C221.812 296.926 226.779 293.858 229.4 289.053L229.659 288.559L260.473 226.994C263.663 220.62 272.809 220.767 275.792 227.24L303.851 288.117C306.304 293.438 311.539 296.906 317.363 297.118H317.362L317.938 297.129H429.59L430.122 297.12L430.623 297.097C441.081 296.432 447.942 285.648 443.979 275.843V275.842L443.775 275.36L403.03 183.214C400.626 177.778 395.334 174.211 389.427 173.993L388.853 173.982H145.062L144.483 173.993ZM208.245 21.5107C202.277 21.7329 196.944 25.3736 194.578 30.8945L155.086 123.041C150.772 133.109 157.974 144.29 168.813 144.638H168.812L169.341 144.646H363.869L364.399 144.638L364.898 144.614C375.319 143.954 382.181 133.241 378.292 123.448L378.088 122.959L337.97 30.8125C335.585 25.3342 330.273 21.7309 324.335 21.5107L323.758 21.5H208.824L208.245 21.5107Z" stroke="#C8C8C8"/>
</g>
<defs>
<filter id="filter0_d_20_311" x="-0.000488281" y="0" width="536.515" height="476.11" filterUnits="userSpaceOnUse" color-interpolation-filters="sRGB">
<feFlood flood-opacity="0" result="BackgroundImageFix"/>
<feColorMatrix in="SourceAlpha" type="matrix" values="0 0 0 0 0 0 0 0 0 0 0 0 0 0 0 0 0 0 127 0" result="hardAlpha"/>
<feOffset dy="4"/>
<feGaussianBlur stdDeviation="2"/>
<feComposite in2="hardAlpha" operator="out"/>
<feColorMatrix type="matrix" values="0 0 0 0 0 0 0 0 0 0 0 0 0 0 0 0 0 0 0.25 0"/>
<feBlend mode="normal" in2="BackgroundImageFix" result="effect1_dropShadow_20_311"/>
<feBlend mode="normal" in="SourceGraphic" in2="effect1_dropShadow_20_311" result="shape"/>
</filter>
</defs>
</svg>
