<svg width="535" height="475" viewBox="0 0 535 475" fill="none" xmlns="http://www.w3.org/2000/svg">
<g filter="url(#filter0_d_21_466)">
<path fill-rule="evenodd" clip-rule="evenodd" d="M322.758 0C336.861 0.000130622 349.642 8.23124 355.493 21.0176L355.766 21.6299L527.398 415.553L527.639 416.111C537.648 439.77 520.29 466.11 494.472 466.11H379.398C364.847 466.11 351.725 457.351 346.147 443.909L270.342 266.205C268.954 262.953 264.338 262.968 262.973 266.23L188.593 443.908C183.015 457.35 169.893 466.11 155.342 466.11H40.0397C14.1513 466.11 -3.27567 439.602 6.99085 415.835L174.735 21.8193L175.005 21.2021C180.814 8.31631 193.648 2.11291e-05 207.824 0H322.758ZM79.8444 321.965C73.4607 321.965 67.6875 325.759 65.1559 331.619L25.3512 423.766C20.7883 434.329 28.5333 446.11 40.0397 446.11H155.342C161.81 446.11 167.642 442.217 170.121 436.243L208.358 344.097C212.73 333.561 204.987 321.965 193.58 321.965H79.8444ZM341.161 321.965C329.753 321.965 322.01 333.561 326.382 344.097L364.62 436.243C367.099 442.217 372.931 446.11 379.398 446.11H494.472C506.037 446.11 513.783 434.218 509.106 423.641L468.361 331.494C465.799 325.701 460.061 321.965 453.727 321.965H341.161ZM144.062 172.482C137.662 172.482 131.877 176.297 129.356 182.18L89.8649 274.326C85.4109 284.719 92.8451 296.262 104.035 296.62L104.571 296.629H214.794L215.36 296.619C221.006 296.42 226.133 293.252 228.839 288.292L229.101 287.79L259.92 226.218C262.922 220.219 271.53 220.357 274.339 226.449L302.397 287.326C304.929 292.819 310.333 296.4 316.344 296.618L316.928 296.629H428.598L429.137 296.62C440.223 296.263 447.598 284.939 443.442 274.655L443.232 274.158L402.487 182.012C399.925 176.219 394.187 172.483 387.853 172.482H144.062ZM207.824 20C201.424 20 195.639 23.8145 193.118 29.6973L153.627 121.844C149.173 132.237 156.607 143.779 167.797 144.138L168.333 144.146H362.877L363.415 144.138C374.464 143.783 381.839 132.528 377.754 122.256L377.547 121.76L337.428 29.6133C334.887 23.7755 329.125 20.0001 322.758 20H207.824Z" fill="white"/>
</g>
<g filter="url(#filter1_i_21_466)">
<path d="M193.579 321.965C204.987 321.965 212.73 333.561 208.358 344.097L170.121 436.243C167.642 442.217 161.81 446.11 155.342 446.11H40.0395C28.5331 446.11 20.7881 434.329 25.351 423.766L65.1557 331.619C67.6872 325.759 73.4605 321.965 79.8442 321.965H193.579ZM453.727 321.965C460.061 321.965 465.799 325.701 468.361 331.494L509.106 423.641C513.783 434.218 506.037 446.11 494.472 446.11H379.398C372.93 446.11 367.098 442.217 364.62 436.243L326.382 344.097C322.01 333.561 329.753 321.965 341.161 321.965H453.727Z" fill="#124486"/>
</g>
<g filter="url(#filter2_i_21_466)">
<path d="M129.355 182.179C131.877 176.297 137.661 172.482 144.062 172.482H387.853C394.187 172.482 399.924 176.219 402.486 182.012L443.231 274.158C447.908 284.736 440.163 296.629 428.598 296.629H316.928C310.684 296.629 305.011 292.996 302.397 287.326L274.338 226.449C271.53 220.357 262.921 220.218 259.919 226.217L229.101 287.79C226.389 293.207 220.851 296.629 214.793 296.629H104.57C93.0836 296.629 85.3391 284.884 89.864 274.326L129.355 182.179Z" fill="#1A73E8"/>
</g>
<g filter="url(#filter3_i_21_466)">
<path d="M193.117 29.6973C195.639 23.8143 201.423 20 207.824 20H322.758C329.126 20 334.887 23.7752 337.428 29.6131L377.547 121.759C382.148 132.327 374.403 144.146 362.877 144.146H168.332C156.846 144.146 149.101 132.402 153.626 121.844L193.117 29.6973Z" fill="#00D8EC"/>
</g>
<defs>
<filter id="filter0_d_21_466" x="0.000244141" y="0" width="534.513" height="474.11" filterUnits="userSpaceOnUse" color-interpolation-filters="sRGB">
<feFlood flood-opacity="0" result="BackgroundImageFix"/>
<feColorMatrix in="SourceAlpha" type="matrix" values="0 0 0 0 0 0 0 0 0 0 0 0 0 0 0 0 0 0 127 0" result="hardAlpha"/>
<feOffset dy="4"/>
<feGaussianBlur stdDeviation="2"/>
<feComposite in2="hardAlpha" operator="out"/>
<feColorMatrix type="matrix" values="0 0 0 0 0 0 0 0 0 0 0 0 0 0 0 0 0 0 0.25 0"/>
<feBlend mode="normal" in2="BackgroundImageFix" result="effect1_dropShadow_21_466"/>
<feBlend mode="normal" in="SourceGraphic" in2="effect1_dropShadow_21_466" result="shape"/>
</filter>
<filter id="filter1_i_21_466" x="24.0218" y="321.965" width="486.469" height="128.146" filterUnits="userSpaceOnUse" color-interpolation-filters="sRGB">
<feFlood flood-opacity="0" result="BackgroundImageFix"/>
<feBlend mode="normal" in="SourceGraphic" in2="BackgroundImageFix" result="shape"/>
<feColorMatrix in="SourceAlpha" type="matrix" values="0 0 0 0 0 0 0 0 0 0 0 0 0 0 0 0 0 0 127 0" result="hardAlpha"/>
<feOffset dy="4"/>
<feGaussianBlur stdDeviation="2"/>
<feComposite in2="hardAlpha" operator="arithmetic" k2="-1" k3="1"/>
<feColorMatrix type="matrix" values="0 0 0 0 0 0 0 0 0 0 0 0 0 0 0 0 0 0 0.25 0"/>
<feBlend mode="normal" in2="shape" result="effect1_innerShadow_21_466"/>
</filter>
<filter id="filter2_i_21_466" x="88.553" y="172.482" width="356.063" height="128.146" filterUnits="userSpaceOnUse" color-interpolation-filters="sRGB">
<feFlood flood-opacity="0" result="BackgroundImageFix"/>
<feBlend mode="normal" in="SourceGraphic" in2="BackgroundImageFix" result="shape"/>
<feColorMatrix in="SourceAlpha" type="matrix" values="0 0 0 0 0 0 0 0 0 0 0 0 0 0 0 0 0 0 127 0" result="hardAlpha"/>
<feOffset dy="4"/>
<feGaussianBlur stdDeviation="2"/>
<feComposite in2="hardAlpha" operator="arithmetic" k2="-1" k3="1"/>
<feColorMatrix type="matrix" values="0 0 0 0 0 0 0 0 0 0 0 0 0 0 0 0 0 0 0.25 0"/>
<feBlend mode="normal" in2="shape" result="effect1_innerShadow_21_466"/>
</filter>
<filter id="filter3_i_21_466" x="152.315" y="20" width="226.579" height="128.146" filterUnits="userSpaceOnUse" color-interpolation-filters="sRGB">
<feFlood flood-opacity="0" result="BackgroundImageFix"/>
<feBlend mode="normal" in="SourceGraphic" in2="BackgroundImageFix" result="shape"/>
<feColorMatrix in="SourceAlpha" type="matrix" values="0 0 0 0 0 0 0 0 0 0 0 0 0 0 0 0 0 0 127 0" result="hardAlpha"/>
<feOffset dy="4"/>
<feGaussianBlur stdDeviation="2"/>
<feComposite in2="hardAlpha" operator="arithmetic" k2="-1" k3="1"/>
<feColorMatrix type="matrix" values="0 0 0 0 0 0 0 0 0 0 0 0 0 0 0 0 0 0 0.25 0"/>
<feBlend mode="normal" in2="shape" result="effect1_innerShadow_21_466"/>
</filter>
</defs>
</svg>
